# Made in Blockbench 5.1.4
mtllib gbu39.mtl

o cube
v -0.16739539097658715 0.1637472659765872 0.84375
v -0.16739539097658715 0.1637472659765872 0.7062499999999998
v -0.16739539097658715 0.1637472659765872 0.84375
v -0.16739539097658715 0.1637472659765872 0.7062499999999998
v -0.012715782592029906 0.009067657592029895 0.7062499999999998
v -0.012715782592029906 0.009067657592029895 0.84375
v -0.012715782592029906 0.009067657592029895 0.7062499999999998
v -0.012715782592029906 0.009067657592029895 0.84375
vt 0 1
vt 0.21875 1
vt 0.21875 1
vt 0 1
vt 0 1
vt 0.21875 1
vt 0.21875 1
vt 0 1
vt 0 1
vt 0.21875 1
vt 0.21875 1
vt 0 1
vt 0 1
vt 0.21875 1
vt 0.21875 1
vt 0 1
vt 0.171875 0
vt 0 0
vt 0 0.109375
vt 0.171875 0.109375
vt 0.171875 0.109375
vt 0 0.109375
vt 0 0
vt 0.171875 0
vn 0 0 -1
vn -0.7071067811865475 0.7071067811865477 0
vn 0 0 1
vn 0.7071067811865475 -0.7071067811865477 0
vn -0.7071067811865477 -0.7071067811865475 0
vn 0.7071067811865477 0.7071067811865475 0
usemtl m_fa4483e0-8cb0-cf4c-8947-47f00000c798
f 4/4/1 7/3/1 5/2/1 2/1/1
f 3/8/2 4/7/2 2/6/2 1/5/2
f 8/12/3 3/11/3 1/10/3 6/9/3
f 7/16/4 8/15/4 6/14/4 5/13/4
f 6/20/5 1/19/5 2/18/5 5/17/5
f 7/24/6 4/23/6 3/22/6 8/21/6
o cube
v 0.009381304320049742 -0.01302942932004976 0.84375
v 0.009381304320049742 -0.01302942932004976 0.7062499999999998
v 0.009381304320049742 -0.01302942932004976 0.84375
v 0.009381304320049742 -0.01302942932004976 0.7062499999999998
v 0.164060912704607 -0.16770903770460704 0.7062499999999998
v 0.164060912704607 -0.16770903770460704 0.84375
v 0.164060912704607 -0.16770903770460704 0.7062499999999998
v 0.164060912704607 -0.16770903770460704 0.84375
vt 0 1
vt 0.21875 1
vt 0.21875 1
vt 0 1
vt 0 1
vt 0.21875 1
vt 0.21875 1
vt 0 1
vt 0 1
vt 0.21875 1
vt 0.21875 1
vt 0 1
vt 0 1
vt 0.21875 1
vt 0.21875 1
vt 0 1
vt 0 0
vt 0.171875 0
vt 0.171875 0.109375
vt 0 0.109375
vt 0 0.109375
vt 0.171875 0.109375
vt 0.171875 0
vt 0 0
vn 0 0 -1
vn -0.7071067811865475 0.7071067811865477 0
vn 0 0 1
vn 0.7071067811865475 -0.7071067811865477 0
vn -0.7071067811865477 -0.7071067811865475 0
vn 0.7071067811865477 0.7071067811865475 0
usemtl m_fa4483e0-8cb0-cf4c-8947-47f00000c798
f 12/28/7 15/27/7 13/26/7 10/25/7
f 11/32/8 12/31/8 10/30/8 9/29/8
f 16/36/9 11/35/9 9/34/9 14/33/9
f 15/40/10 16/39/10 14/38/10 13/37/10
f 14/44/11 9/43/11 10/42/11 13/41/11
f 15/48/12 12/47/12 11/46/12 16/45/12
o cube
v -0.16739565184059702 -0.1677087768405971 0.84375
v -0.16739565184059702 -0.1677087768405971 0.7062499999999998
v -0.16739565184059702 -0.1677087768405971 0.84375
v -0.16739565184059702 -0.1677087768405971 0.7062499999999998
v -0.012716043456039753 -0.013029168456039767 0.7062499999999998
v -0.012716043456039753 -0.013029168456039767 0.84375
v -0.012716043456039753 -0.013029168456039767 0.7062499999999998
v -0.012716043456039753 -0.013029168456039767 0.84375
vt 0 1
vt 0.21875 1
vt 0.21875 1
vt 0 1
vt 0 1
vt 0.21875 1
vt 0.21875 1
vt 0 1
vt 0 1
vt 0.21875 1
vt 0.21875 1
vt 0 1
vt 0 1
vt 0.21875 1
vt 0.21875 1
vt 0 1
vt 0.171875 0
vt 0 0
vt 0 0.109375
vt 0.171875 0.109375
vt 0.171875 0.109375
vt 0 0.109375
vt 0 0
vt 0.171875 0
vn 0 0 -1
vn -0.7071067811865475 -0.7071067811865477 0
vn 0 0 1
vn 0.7071067811865475 0.7071067811865477 0
vn 0.7071067811865477 -0.7071067811865475 0
vn -0.7071067811865477 0.7071067811865475 0
usemtl m_fa4483e0-8cb0-cf4c-8947-47f00000c798
f 20/52/13 23/51/13 21/50/13 18/49/13
f 19/56/14 20/55/14 18/54/14 17/53/14
f 24/60/15 19/59/15 17/58/15 22/57/15
f 23/64/16 24/63/16 22/62/16 21/61/16
f 22/68/17 17/67/17 18/66/17 21/65/17
f 23/72/18 20/71/18 19/70/18 24/69/18
o cube
v 0.009381043456039816 0.009067918456039808 0.84375
v 0.009381043456039816 0.009067918456039808 0.7062499999999998
v 0.009381043456039816 0.009067918456039808 0.84375
v 0.009381043456039816 0.009067918456039808 0.7062499999999998
v 0.16406065184059707 0.1637475268405971 0.7062499999999998
v 0.16406065184059707 0.1637475268405971 0.84375
v 0.16406065184059707 0.1637475268405971 0.7062499999999998
v 0.16406065184059707 0.1637475268405971 0.84375
vt 0 1
vt 0.21875 1
vt 0.21875 1
vt 0 1
vt 0 1
vt 0.21875 1
vt 0.21875 1
vt 0 1
vt 0 1
vt 0.21875 1
vt 0.21875 1
vt 0 1
vt 0 1
vt 0.21875 1
vt 0.21875 1
vt 0 1
vt 0 0
vt 0.171875 0
vt 0.171875 0.109375
vt 0 0.109375
vt 0 0.109375
vt 0.171875 0.109375
vt 0.171875 0
vt 0 0
vn 0 0 -1
vn -0.7071067811865475 -0.7071067811865477 0
vn 0 0 1
vn 0.7071067811865475 0.7071067811865477 0
vn 0.7071067811865477 -0.7071067811865475 0
vn -0.7071067811865477 0.7071067811865475 0
usemtl m_fa4483e0-8cb0-cf4c-8947-47f00000c798
f 28/76/19 31/75/19 29/74/19 26/73/19
f 27/80/20 28/79/20 26/78/20 25/77/20
f 32/84/21 27/83/21 25/82/21 30/81/21
f 31/88/22 32/87/22 30/86/22 29/85/22
f 30/92/23 25/91/23 26/90/23 29/89/23
f 31/96/24 28/95/24 27/94/24 32/93/24
o wing
v 0.7731687975297451 -0.1010812500000001 0.16923674248240428
v -0.03522579341763079 -0.10108125 -0.16561126083704936
v 0.7731687975297451 -0.08233125000000009 0.16923674248240428
v -0.03522579341763079 -0.08233125 -0.16561126083704936
v 0.012609635628005447 -0.10108125000000001 -0.28109620240096017
v 0.8210042265753813 -0.1010812500000001 0.053751800918493464
v 0.012609635628005447 -0.08233125000000001 -0.28109620240096017
v 0.8210042265753813 -0.0823312500000001 0.053751800918493464
vt 0 1
vt 0 1
vt 0.21875 1
vt 0.21875 1
vt 0.390625 0.125
vt 1 0.125
vt 1 0.109375
vt 0.390625 0.109375
vt 0.375 0.171875
vt 0.375 0.265625
vt 0.359375 0.265625
vt 0.359375 0.171875
vt 1 0.15625
vt 0.390625 0.15625
vt 0.390625 0.140625
vt 1 0.140625
vt 0.390625 0.171875
vt 0.390625 0.265625
vt 1 0.265625
vt 1 0.171875
vt 1 0.171875
vt 1 0.265625
vt 0.390625 0.265625
vt 0.390625 0.171875
vn -0.9238795325112866 1.1314261122877003e-16 -0.38268343236508984
vn -0.38268343236508984 4.686520405326299e-17 0.9238795325112866
vn 0.9238795325112866 -1.1314261122877003e-16 0.38268343236508984
vn 0.38268343236508984 -4.686520405326299e-17 -0.9238795325112866
vn -1.2246467991473532e-16 -1 0
vn 1.2246467991473532e-16 1 0
usemtl m_fa4483e0-8cb0-cf4c-8947-47f00000c798
f 36/100/25 39/99/25 37/98/25 34/97/25
f 35/104/26 36/103/26 34/102/26 33/101/26
f 40/108/27 35/107/27 33/106/27 38/105/27
f 39/112/28 40/111/28 38/110/28 37/109/28
f 38/116/29 33/115/29 34/114/29 37/113/29
f 39/120/30 36/119/30 35/118/30 40/117/30
o wing
v -0.011370543586289698 -0.10733124999999999 0.14103386140217125
v 0.7272352711728662 -0.10733125000000007 0.010797728151973371
v -0.011370543586289694 -0.09483124999999999 0.14103386140217125
v 0.7272352711728662 -0.09483125000000009 0.010797728151973371
v 0.7435147878291409 -0.10733125000000007 0.10312345499686786
v 0.004908973069985015 -0.10733124999999999 0.23335958824706574
v 0.7435147878291409 -0.09483125000000009 0.10312345499686786
v 0.004908973069985015 -0.09483125 0.23335958824706574
vt 0 1
vt 0 1
vt 0.21875 1
vt 0.21875 1
vt 0.640625 0.046875
vt 1 0.046875
vt 1 0.03125
vt 0.640625 0.03125
vt 0.21875 1
vt 0.21875 1
vt 0 1
vt 0 1
vt 1 0.046875
vt 0.640625 0.046875
vt 0.640625 0.03125
vt 1 0.03125
vt 1 0.0625
vt 1 0.09375
vt 0.640625 0.09375
vt 0.640625 0.0625
vt 0.640625 0.0625
vt 0.640625 0.09375
vt 1 0.09375
vt 1 0.0625
vn 0.9848077530122081 -1.2060416625018979e-16 -0.17364817766693036
vn -0.17364817766693058 2.126576849575774e-17 -0.9848077530122081
vn -0.9848077530122081 1.2060416625018979e-16 0.17364817766693036
vn 0.17364817766693058 -2.126576849575774e-17 0.9848077530122081
vn -1.2246467991473535e-16 -1 -6.162975822039157e-33
vn 1.2246467991473535e-16 1 6.162975822039157e-33
usemtl m_fa4483e0-8cb0-cf4c-8947-47f00000c798
f 44/124/31 47/123/31 45/122/31 42/121/31
f 43/128/32 44/127/32 42/126/32 41/125/32
f 48/132/33 43/131/33 41/130/33 46/129/33
f 47/136/34 48/135/34 46/134/34 45/133/34
f 46/140/35 41/139/35 42/138/35 45/137/35
f 47/144/36 44/143/36 43/142/36 48/141/36
o wing
v -0.004908973069985029 -0.10733124999999999 0.23335958824706574
v -0.7435147878291409 -0.1073312499999999 0.10312345499686786
v -0.004908973069985029 -0.09483125 0.23335958824706574
v -0.7435147878291409 -0.09483124999999991 0.10312345499686786
v -0.7272352711728662 -0.1073312499999999 0.010797728151973371
v 0.011370543586289684 -0.10733124999999999 0.14103386140217125
v -0.7272352711728662 -0.09483124999999992 0.010797728151973371
v 0.011370543586289687 -0.09483125 0.14103386140217125
vt 0 1
vt 0 1
vt 0.21875 1
vt 0.21875 1
vt 0.640625 0.046875
vt 1 0.046875
vt 1 0.03125
vt 0.640625 0.03125
vt 0.21875 1
vt 0.21875 1
vt 0 1
vt 0 1
vt 1 0.046875
vt 0.640625 0.046875
vt 0.640625 0.03125
vt 1 0.03125
vt 1 0.09375
vt 1 0.0625
vt 0.640625 0.0625
vt 0.640625 0.09375
vt 0.640625 0.09375
vt 0.640625 0.0625
vt 1 0.0625
vt 1 0.09375
vn -0.9848077530122081 1.2060416625018979e-16 -0.17364817766693036
vn -0.17364817766693058 2.126576849575774e-17 0.9848077530122081
vn 0.9848077530122081 -1.2060416625018979e-16 0.17364817766693036
vn 0.17364817766693058 -2.126576849575774e-17 -0.9848077530122081
vn -1.2246467991473535e-16 -1 6.162975822039157e-33
vn 1.2246467991473535e-16 1 -6.162975822039157e-33
usemtl m_fa4483e0-8cb0-cf4c-8947-47f00000c798
f 52/148/37 55/147/37 53/146/37 50/145/37
f 51/152/38 52/151/38 50/150/38 49/149/38
f 56/156/39 51/155/39 49/154/39 54/153/39
f 55/160/40 56/159/40 54/158/40 53/157/40
f 54/164/41 49/163/41 50/162/41 53/161/41
f 55/168/42 52/167/42 51/166/42 56/165/42
o wing
v -0.8210042265753813 -0.1010812499999999 0.053751800918493464
v -0.012609635628005447 -0.10108125000000001 -0.28109620240096017
v -0.8210042265753813 -0.0823312499999999 0.053751800918493464
v -0.012609635628005447 -0.08233125 -0.28109620240096017
v 0.03522579341763078 -0.10108125000000001 -0.16561126083704936
v -0.7731687975297451 -0.10108124999999991 0.16923674248240428
v 0.03522579341763078 -0.08233125000000001 -0.16561126083704936
v -0.7731687975297451 -0.08233124999999991 0.16923674248240428
vt 0 1
vt 0 1
vt 0.21875 1
vt 0.21875 1
vt 0.390625 0.15625
vt 1 0.15625
vt 1 0.140625
vt 0.390625 0.140625
vt 0.375 0.265625
vt 0.375 0.171875
vt 0.359375 0.171875
vt 0.359375 0.265625
vt 1 0.125
vt 0.390625 0.125
vt 0.390625 0.109375
vt 1 0.109375
vt 0.390625 0.265625
vt 0.390625 0.171875
vt 1 0.171875
vt 1 0.265625
vt 1 0.265625
vt 1 0.171875
vt 0.390625 0.171875
vt 0.390625 0.265625
vn 0.9238795325112866 -1.1314261122877003e-16 -0.38268343236508984
vn -0.38268343236508984 4.686520405326299e-17 -0.9238795325112866
vn -0.9238795325112866 1.1314261122877003e-16 0.38268343236508984
vn 0.38268343236508984 -4.686520405326299e-17 0.9238795325112866
vn -1.2246467991473532e-16 -1 0
vn 1.2246467991473532e-16 1 0
usemtl m_fa4483e0-8cb0-cf4c-8947-47f00000c798
f 60/172/43 63/171/43 61/170/43 58/169/43
f 59/176/44 60/175/44 58/174/44 57/173/44
f 64/180/45 59/179/45 57/178/45 62/177/45
f 63/184/46 64/183/46 62/182/46 61/181/46
f 62/188/47 57/187/47 58/186/47 61/185/47
f 63/192/48 60/191/48 59/190/48 64/189/48
o body
v -0.1013606634909239 -0.038671979081070444 0.55859375
v -0.1013606634909239 -0.038671979081070444 -0.25390625
v 0.00028593630464231884 0.06297462071449575 0.55859375
v 0.00028593630464231884 0.06297462071449575 -0.25390625
v 0.00028593630464231884 -0.1403185788766367 -0.25390625
v 0.00028593630464231884 -0.1403185788766367 0.55859375
v 0.10193253610020855 -0.038671979081070514 -0.25390625
v 0.10193253610020855 -0.038671979081070514 0.55859375
vt 0.3125 0.3125
vt 0.3125 0.40625
vt 0.40625 0.40625
vt 0.40625 0.3125
vt 1 0.296875
vt 0.421875 0.296875
vt 0.421875 0.28125
vt 1 0.28125
vt 0.40625 0.3125
vt 0.3125 0.3125
vt 0.3125 0.40625
vt 0.40625 0.40625
vt 1 0.40625
vt 0.421875 0.40625
vt 0.421875 0.3125
vt 1 0.3125
vt 1 0.40625
vt 1 0.3125
vt 0.421875 0.3125
vt 0.421875 0.40625
vt 1 0.296875
vt 1 0.28125
vt 0.421875 0.28125
vt 0.421875 0.296875
vn 0 0 -1
vn -0.7071067811865475 0.7071067811865477 0
vn 0 0 1
vn 0.7071067811865475 -0.7071067811865477 0
vn -0.7071067811865477 -0.7071067811865475 0
vn 0.7071067811865477 0.7071067811865475 0
usemtl m_fa4483e0-8cb0-cf4c-8947-47f00000c798
f 68/196/49 71/195/49 69/194/49 66/193/49
f 67/200/50 68/199/50 66/198/50 65/197/50
f 72/204/51 67/203/51 65/202/51 70/201/51
f 71/208/52 72/207/52 70/206/52 69/205/52
f 70/212/53 65/211/53 66/210/53 69/209/53
f 71/216/54 68/215/54 67/214/54 72/213/54
o body
v -0.07926313463710603 -0.051394155899831206 -0.25390625
v -0.07926313463710603 -0.051394155899831206 -0.44140625
v 0.0002863782463805725 0.02815535698365538 -0.25390625
v 0.0002863782463805725 0.02815535698365538 -0.44140625
v 0.0002863782463805864 -0.13094366878331784 -0.44140625
v 0.0002863782463805864 -0.13094366878331784 -0.25390625
v 0.07983589112986719 -0.05139415589983126 -0.44140625
v 0.07983589112986719 -0.05139415589983126 -0.25390625
vt 0.140625 0.328125
vt 0.140625 0.34375
vt 0.15625 0.34375
vt 0.15625 0.328125
vt 0.140625 0.390625
vt 0.265625 0.390625
vt 0.265625 0.40625
vt 0.140625 0.40625
vt 0.21875 1
vt 0.21875 1
vt 0 1
vt 0 1
vt 0.125 0.40625
vt 0 0.40625
vt 0 0.328125
vt 0.125 0.328125
vt 0.125 0.40625
vt 0.125 0.328125
vt 0 0.328125
vt 0 0.40625
vt 0.265625 0.375
vt 0.265625 0.359375
vt 0.140625 0.359375
vt 0.140625 0.375
vn 0 0 -1
vn -0.7071067811865475 0.7071067811865477 0
vn 0 0 1
vn 0.7071067811865475 -0.7071067811865477 0
vn -0.7071067811865477 -0.7071067811865475 0
vn 0.7071067811865477 0.7071067811865475 0
usemtl m_fa4483e0-8cb0-cf4c-8947-47f00000c798
f 76/220/55 79/219/55 77/218/55 74/217/55
f 75/224/56 76/223/56 74/222/56 73/221/56
f 80/228/57 75/227/57 73/226/57 78/225/57
f 79/232/58 80/231/58 78/230/58 77/229/58
f 78/236/59 73/235/59 74/234/59 77/233/59
f 79/240/60 76/239/60 75/238/60 80/237/60
o body
v -0.12345775040300351 0.0021749280176469737 0.49609375
v -0.12345775040300351 0.0021749280176469737 -0.53515625
v 0.0002859363046423258 0.12591861472529278 0.49609375
v 0.0002859363046423258 0.12591861472529278 -0.53515625
v 0.0002859363046423223 -0.12156875868999889 -0.53515625
v 0.0002859363046423223 -0.12156875868999889 0.49609375
v 0.12402962301228816 0.0021749280176468974 -0.53515625
v 0.12402962301228816 0.0021749280176468974 0.49609375
vt 0.90625 0.90625
vt 0.90625 1
vt 1 1
vt 1 0.90625
vt 0 0.421875
vt 1 0.421875
vt 1 0.515625
vt 0 0.515625
vt 1 1
vt 1 0.90625
vt 0.90625 0.90625
vt 0.90625 1
vt 0 0.734375
vt 1 0.734375
vt 1 0.640625
vt 0 0.640625
vt 1 0.84375
vt 1 0.75
vt 0 0.75
vt 0 0.84375
vt 1 0.625
vt 1 0.53125
vt 0 0.53125
vt 0 0.625
vn 0 0 -1
vn -0.7071067811865475 0.7071067811865477 0
vn 0 0 1
vn 0.7071067811865475 -0.7071067811865477 0
vn -0.7071067811865477 -0.7071067811865475 0
vn 0.7071067811865477 0.7071067811865475 0
usemtl m_fa4483e0-8cb0-cf4c-8947-47f00000c798
f 84/244/61 87/243/61 85/242/61 82/241/61
f 83/248/62 84/247/62 82/246/62 81/245/62
f 88/252/63 83/251/63 81/250/63 86/249/63
f 87/256/64 88/255/64 86/254/64 85/253/64
f 86/260/65 81/259/65 82/258/65 85/257/65
f 87/264/66 84/263/66 83/262/66 88/261/66
o cube
v -0.07484415919642835 -0.0011721588944326941 0.8460937500000001
v -0.07484415919642835 -0.0011721588944326941 0.7585937499999997
v 0.0002859363046423327 0.07395793660663796 0.8460937500000001
v 0.0002859363046423327 0.07395793660663796 0.7585937499999997
v 0.00028593630464228414 -0.07630225439550334 0.7585937499999997
v 0.00028593630464228414 -0.07630225439550334 0.8460937500000001
v 0.07541603180571296 -0.0011721588944326802 0.7585937499999997
v 0.07541603180571296 -0.0011721588944326802 0.8460937500000001
vt 0 1
vt 0 1
vt 0.21875 1
vt 0.21875 1
vt 0.4375 0.09375
vt 0.546875 0.09375
vt 0.546875 0.03125
vt 0.4375 0.03125
vt 0.625 0.09375
vt 0.625 0.03125
vt 0.5625 0.03125
vt 0.5625 0.09375
vt 0.4375 0.03125
vt 0.546875 0.03125
vt 0.546875 0.09375
vt 0.4375 0.09375
vt 0.546875 0.09375
vt 0.546875 0.03125
vt 0.4375 0.03125
vt 0.4375 0.09375
vt 0.546875 0.09375
vt 0.546875 0.03125
vt 0.4375 0.03125
vt 0.4375 0.09375
vn 0 0 -1
vn -0.7071067811865475 0.7071067811865477 0
vn 0 0 1
vn 0.7071067811865475 -0.7071067811865477 0
vn -0.7071067811865477 -0.7071067811865475 0
vn 0.7071067811865477 0.7071067811865475 0
usemtl m_fa4483e0-8cb0-cf4c-8947-47f00000c798
f 92/268/67 95/267/67 93/266/67 90/265/67
f 91/272/68 92/271/68 90/270/68 89/269/68
f 96/276/69 91/275/69 89/274/69 94/273/69
f 95/280/70 96/279/70 94/278/70 93/277/70
f 94/284/71 89/283/71 90/282/71 93/281/71
f 95/288/72 92/287/72 91/286/72 96/285/72
o cube
v -0.10136066349092392 -0.0011721588944326386 0.7585937500000002
v -0.10136066349092392 -0.0011721588944326386 0.4960937500000001
v 0.0002859363046423258 0.10047444090113355 0.7585937500000002
v 0.0002859363046423258 0.10047444090113355 0.4960937500000001
v 0.0002859363046423119 -0.1028187586899989 0.4960937500000001
v 0.0002859363046423119 -0.1028187586899989 0.7585937500000002
v 0.10193253610020855 -0.001172158894432708 0.4960937500000001
v 0.10193253610020855 -0.001172158894432708 0.7585937500000002
vt 0 1
vt 0 1
vt 0.21875 1
vt 0.21875 1
vt 0.4375 0.09375
vt 0.546875 0.09375
vt 0.546875 0.03125
vt 0.4375 0.03125
vt 0.625 0.09375
vt 0.625 0.03125
vt 0.5625 0.03125
vt 0.5625 0.09375
vt 0.4375 0.03125
vt 0.546875 0.03125
vt 0.546875 0.09375
vt 0.4375 0.09375
vt 0.546875 0.09375
vt 0.546875 0.03125
vt 0.4375 0.03125
vt 0.4375 0.09375
vt 0.546875 0.09375
vt 0.546875 0.03125
vt 0.4375 0.03125
vt 0.4375 0.09375
vn 0 0 -1
vn -0.7071067811865475 0.7071067811865477 0
vn 0 0 1
vn 0.7071067811865475 -0.7071067811865477 0
vn -0.7071067811865477 -0.7071067811865475 0
vn 0.7071067811865477 0.7071067811865475 0
usemtl m_fa4483e0-8cb0-cf4c-8947-47f00000c798
f 100/292/73 103/291/73 101/290/73 98/289/73
f 99/296/74 100/295/74 98/294/74 97/293/74
f 104/300/75 99/299/75 97/298/75 102/297/75
f 103/304/76 104/303/76 102/302/76 101/301/76
f 102/308/77 97/307/77 98/306/77 101/305/77
f 103/312/78 100/311/78 99/310/78 104/309/78
o cube
v -0.1146189156381717 0.002174928017646967 -0.52734375
v -0.1146189156381717 0.002174928017646967 -0.6554687499999999
v 0.0002859363046423119 0.11707977996046093 -0.52734375
v 0.0002859363046423119 0.11707977996046093 -0.6554687499999999
v 0.0002859363046423258 -0.11272992392516709 -0.6554687499999999
v 0.0002859363046423258 -0.11272992392516709 -0.52734375
v 0.11519078824745634 0.0021749280176468835 -0.6554687499999999
v 0.11519078824745634 0.0021749280176468835 -0.52734375
vt 0.15625 0.9375
vt 0.15625 1
vt 0.21875 1
vt 0.21875 0.9375
vt 0.390625 1
vt 0.390625 0.90625
vt 0.453125 0.90625
vt 0.453125 1
vt 0.21875 1
vt 0.21875 1
vt 0 1
vt 0 1
vt 0.234375 0.90625
vt 0.234375 1
vt 0.296875 1
vt 0.296875 0.90625
vt 0.375 0.90625
vt 0.3125 0.90625
vt 0.3125 1
vt 0.375 1
vt 0.53125 0.90625
vt 0.46875 0.90625
vt 0.46875 1
vt 0.53125 1
vn 0 0 -1
vn -0.7071067811865475 0.7071067811865477 0
vn 0 0 1
vn 0.7071067811865475 -0.7071067811865477 0
vn -0.7071067811865477 -0.7071067811865475 0
vn 0.7071067811865477 0.7071067811865475 0
usemtl m_fa4483e0-8cb0-cf4c-8947-47f00000c798
f 108/316/79 111/315/79 109/314/79 106/313/79
f 107/320/80 108/319/80 106/318/80 105/317/80
f 112/324/81 107/323/81 105/322/81 110/321/81
f 111/328/82 112/327/82 110/326/82 109/325/82
f 110/332/83 105/331/83 106/330/83 109/329/83
f 111/336/84 108/335/84 107/334/84 112/333/84
o cube
v -0.07042474181401247 0.002174928017646967 -0.79296875
v -0.07042474181401247 0.002174928017646967 -0.84921875
v 0.0002859363046423119 0.07288560613630174 -0.79296875
v 0.0002859363046423119 0.07288560613630174 -0.84921875
v 0.00028593630464233185 -0.06853575010100786 -0.84921875
v 0.00028593630464233185 -0.06853575010100786 -0.79296875
v 0.07099661442329712 0.0021749280176468835 -0.84921875
v 0.07099661442329712 0.0021749280176468835 -0.79296875
vt 0.546875 0.90625
vt 0.546875 1
vt 0.640625 1
vt 0.640625 0.90625
vt 0.84375 0.90625
vt 0.890625 0.90625
vt 0.890625 1
vt 0.84375 1
vt 0.21875 1
vt 0.21875 1
vt 0 1
vt 0 1
vt 0.78125 1
vt 0.828125 1
vt 0.828125 0.90625
vt 0.78125 0.90625
vt 0.703125 1
vt 0.703125 0.90625
vt 0.65625 0.90625
vt 0.65625 1
vt 0.765625 1
vt 0.765625 0.90625
vt 0.71875 0.90625
vt 0.71875 1
vn 0 0 -1
vn -0.7071067811865475 0.7071067811865477 0
vn 0 0 1
vn 0.7071067811865475 -0.7071067811865477 0
vn -0.7071067811865477 -0.7071067811865475 0
vn 0.7071067811865477 0.7071067811865475 0
usemtl m_fa4483e0-8cb0-cf4c-8947-47f00000c798
f 116/340/85 119/339/85 117/338/85 114/337/85
f 115/344/86 116/343/86 114/342/86 113/341/86
f 120/348/87 115/347/87 113/346/87 118/345/87
f 119/352/88 120/351/88 118/350/88 117/349/88
f 118/356/89 113/355/89 114/354/89 117/353/89
f 119/360/90 116/359/90 115/358/90 120/357/90
o cube
v -0.09694124610850796 0.002174928017646939 -0.6554687499999999
v -0.09694124610850796 0.002174928017646939 -0.79296875
v 0.0002859363046423674 0.09940211043079722 -0.6554687499999999
v 0.0002859363046423674 0.09940211043079722 -0.79296875
v 0.0002859363046422876 -0.09505225439550335 -0.79296875
v 0.0002859363046422876 -0.09505225439550335 -0.6554687499999999
v 0.09751311871779261 0.002174928017646946 -0.79296875
v 0.09751311871779261 0.002174928017646946 -0.6554687499999999
vt 0.546875 0.90625
vt 0.546875 1
vt 0.640625 1
vt 0.640625 0.90625
vt 0.84375 0.90625
vt 0.890625 0.90625
vt 0.890625 1
vt 0.84375 1
vt 0.21875 1
vt 0.21875 1
vt 0 1
vt 0 1
vt 0.78125 1
vt 0.828125 1
vt 0.828125 0.90625
vt 0.78125 0.90625
vt 0.703125 1
vt 0.703125 0.90625
vt 0.65625 0.90625
vt 0.65625 1
vt 0.765625 1
vt 0.765625 0.90625
vt 0.71875 0.90625
vt 0.71875 1
vn 0 0 -1
vn -0.7071067811865475 0.7071067811865477 0
vn 0 0 1
vn 0.7071067811865475 -0.7071067811865477 0
vn -0.7071067811865477 -0.7071067811865475 0
vn 0.7071067811865477 0.7071067811865475 0
usemtl m_fa4483e0-8cb0-cf4c-8947-47f00000c798
f 124/364/91 127/363/91 125/362/91 122/361/91
f 123/368/92 124/367/92 122/366/92 121/365/92
f 128/372/93 123/371/93 121/370/93 126/369/93
f 127/376/94 128/375/94 126/374/94 125/373/94
f 126/380/95 121/379/95 122/378/95 125/377/95
f 127/384/96 124/383/96 123/382/96 128/381/96
o cube
v -0.043908237519516904 0.002174928017646939 -0.84921875
v -0.043908237519516904 0.002174928017646939 -0.8992187500000001
v 0.0002859363046423327 0.04636910184180617 -0.84921875
v 0.0002859363046423327 0.04636910184180617 -0.8992187500000001
v 0.0002859363046423171 -0.042019245806512284 -0.8992187500000001
v 0.0002859363046423171 -0.042019245806512284 -0.84921875
v 0.04448011012880155 0.002174928017646932 -0.8992187500000001
v 0.04448011012880155 0.002174928017646932 -0.84921875
vt 0.71875 0.859375
vt 0.71875 0.890625
vt 0.75 0.890625
vt 0.75 0.859375
vt 0.9375 0.890625
vt 0.890625 0.890625
vt 0.890625 0.859375
vt 0.9375 0.859375
vt 0.21875 1
vt 0.21875 1
vt 0 1
vt 0 1
vt 0.953125 0.890625
vt 1 0.890625
vt 1 0.859375
vt 0.953125 0.859375
vt 0.828125 0.859375
vt 0.828125 0.890625
vt 0.875 0.890625
vt 0.875 0.859375
vt 0.765625 0.859375
vt 0.765625 0.890625
vt 0.8125 0.890625
vt 0.8125 0.859375
vn 0 0 -1
vn -0.7071067811865475 0.7071067811865477 0
vn 0 0 1
vn 0.7071067811865475 -0.7071067811865477 0
vn -0.7071067811865477 -0.7071067811865475 0
vn 0.7071067811865477 0.7071067811865475 0
usemtl m_fa4483e0-8cb0-cf4c-8947-47f00000c798
f 132/388/97 135/387/97 133/386/97 130/385/97
f 131/392/98 132/391/98 130/390/98 129/389/98
f 136/396/99 131/395/99 129/394/99 134/393/99
f 135/400/100 136/399/100 134/398/100 133/397/100
f 134/404/101 129/403/101 130/402/101 133/401/101
f 135/408/102 132/407/102 131/406/102 136/405/102